# xmcd
#
# Track frame offsets:
#	150
#	11265
#	23450
#	35567
#	56675
#	72195
#	88692
#	104692
#	117410
#	131890
#	151855
#	163557
#	180985
#	193082
#
# Disc length: 2797 seconds
#
# Revision: 1
# Processed by: cddbd v1.5.2PL0 Copyright (c) Steve Scherf et al.
# Submitted via: audiograbber 1.83.01
#
DISCID=b20aeb0e
DTITLE=Muriel - This Is Me!
DYEAR=1900
DGENRE=
TTITLE0=On The Road To Loving Me
TTITLE1=What Part Of No
TTITLE2=What's Your Mama's Name
TTITLE3=Cailín Ban
TTITLE4=Just One Penny Shy
TTITLE5=I Will Love You All My Life
TTITLE6=Sing Me An Old Fashioned Song
TTITLE7=Old Love Letters
TTITLE8=Slaney Valley
TTITLE9=A New Moon, An Old Flame And You
TTITLE10=Before The Next Teardrop Falls
TTITLE11=My Beautiful Green Fields
TTITLE12=Wings Of A Dove
TTITLE13=The Speed Of The Sound Of Loneliness
EXTD=
EXTT0=
EXTT1=
EXTT2=
EXTT3=
EXTT4=
EXTT5=
EXTT6=
EXTT7=
EXTT8=
EXTT9=
EXTT10=
EXTT11=
EXTT12=
EXTT13=
PLAYORDER=
